<svg width="34" height="34" viewBox="0 0 34 34" fill="none" xmlns="http://www.w3.org/2000/svg">
<rect x="0.134766" y="0.322418" width="33.4041" height="33.4041" rx="5.56734" fill="white"/>
<g clip-path="url(#clip0_19_631)">
<path fill-rule="evenodd" clip-rule="evenodd" d="M23.5511 22.5048C22.5575 20.787 21.0262 19.5552 19.2392 18.9713C21.0561 17.8897 21.9264 15.7275 21.3655 13.6888C20.8046 11.6502 18.9508 10.2375 16.8364 10.2375C14.7219 10.2375 12.8681 11.6502 12.3072 13.6888C11.7463 15.7275 12.6166 17.8897 14.4335 18.9713C12.6465 19.5545 11.1153 20.7863 10.1216 22.5048C10.0224 22.6666 10.0188 22.8694 10.1122 23.0346C10.2056 23.1997 10.3813 23.3012 10.571 23.2996C10.7608 23.298 10.9347 23.1935 11.0252 23.0267C12.2544 20.9025 14.427 19.6341 16.8364 19.6341C19.2458 19.6341 21.4183 20.9025 22.6475 23.0267C22.738 23.1935 22.912 23.298 23.1017 23.2996C23.2914 23.3012 23.4671 23.1997 23.5605 23.0346C23.6539 22.8694 23.6503 22.6666 23.5511 22.5048ZM13.1828 14.9367C13.1828 12.9189 14.8186 11.2831 16.8364 11.2831C18.8542 11.2831 20.4899 12.9189 20.4899 14.9367C20.4899 16.9545 18.8542 18.5903 16.8364 18.5903C14.8195 18.5881 13.185 16.9536 13.1828 14.9367Z" fill="black"/>
</g>
<defs>
<clipPath id="clip0_19_631">
<rect width="16.702" height="16.702" fill="white" transform="translate(8.48535 8.67343)"/>
</clipPath>
</defs>
</svg>
