<svg width="11" height="16" viewBox="0 0 11 16" fill="none" xmlns="http://www.w3.org/2000/svg">
<path fill-rule="evenodd" clip-rule="evenodd" d="M7.27891 7.54156H6.20391V3.24157H6.74141C7.92882 3.24157 8.89141 4.20415 8.89141 5.39157C8.89141 5.68842 9.13205 5.92907 9.42891 5.92907C9.72576 5.92907 9.96641 5.68842 9.96641 5.39157C9.96455 3.61121 8.52176 2.16842 6.74141 2.16656H6.20391V1.09157C6.20391 0.794712 5.96326 0.554065 5.66641 0.554065C5.36955 0.554065 5.12891 0.794712 5.12891 1.09157V2.16656H4.59141C2.81029 2.16656 1.36641 3.61045 1.36641 5.39157C1.36641 7.17268 2.81029 8.61657 4.59141 8.61657H5.12891V12.9166H4.05391C2.86649 12.9166 1.90391 11.954 1.90391 10.7666C1.90391 10.4697 1.66326 10.2291 1.36641 10.2291C1.06955 10.2291 0.828907 10.4697 0.828907 10.7666C0.830758 12.5469 2.27356 13.9897 4.05391 13.9916H5.12891V15.0666C5.12891 15.3634 5.36955 15.6041 5.66641 15.6041C5.96326 15.6041 6.20391 15.3634 6.20391 15.0666V13.9916H7.27891C9.06003 13.9916 10.5039 12.5477 10.5039 10.7666C10.5039 8.98545 9.06003 7.54156 7.27891 7.54156ZM4.59141 7.54156C3.40399 7.54156 2.44141 6.57898 2.44141 5.39157C2.44141 4.20415 3.40399 3.24157 4.59141 3.24157H5.12891V7.54156H4.59141ZM7.27891 12.9166H6.20391V8.61657H7.27891C8.46632 8.61657 9.42891 9.57915 9.42891 10.7666C9.42891 11.954 8.46632 12.9166 7.27891 12.9166Z" fill="black"/>
</svg>
