<svg width="15" height="15" viewBox="0 0 15 15" fill="none" xmlns="http://www.w3.org/2000/svg">
<path fill-rule="evenodd" clip-rule="evenodd" d="M7.66641 0.249585C3.80732 0.249585 0.678906 3.378 0.678906 7.23709C0.678906 11.0962 3.80732 14.2246 7.66641 14.2246C11.5255 14.2246 14.6539 11.0962 14.6539 7.23709C14.6498 3.37968 11.5238 0.253659 7.66641 0.249585ZM7.66641 13.1496C4.40102 13.1496 1.75391 10.5025 1.75391 7.23709C1.75391 3.9717 4.40102 1.32459 7.66641 1.32458C10.9318 1.32458 13.5789 3.9717 13.5789 7.23709C13.5752 10.5009 10.9303 13.1459 7.66641 13.1496ZM11.9664 7.23709C11.9664 7.53394 11.7258 7.77459 11.4289 7.77459H7.66641C7.36955 7.77459 7.12891 7.53394 7.12891 7.23709V3.47459C7.12891 3.17773 7.36955 2.93709 7.66641 2.93709C7.96326 2.93709 8.20391 3.17773 8.20391 3.47459V6.69958H11.4289C11.7258 6.69958 11.9664 6.94023 11.9664 7.23709Z" fill="black"/>
</svg>
