<svg width="34" height="34" viewBox="0 0 34 34" fill="none" xmlns="http://www.w3.org/2000/svg">
<rect x="0.134766" y="0.171204" width="33.4041" height="33.4041" rx="5.56734" fill="white"/>
<g clip-path="url(#clip0_19_707)">
<path fill-rule="evenodd" clip-rule="evenodd" d="M21.6571 12.0884C20.3961 10.8147 18.6802 10.095 16.8879 10.088H16.8364C13.089 10.088 10.0512 13.1259 10.0512 16.8732V20.5268C10.0512 21.3916 10.7522 22.0926 11.617 22.0926H12.6609C13.5256 22.0926 14.2267 21.3916 14.2267 20.5268V17.9171C14.2267 17.0523 13.5256 16.3513 12.6609 16.3513H11.1185C11.324 14.1296 12.7964 12.2274 14.8957 11.4715C16.995 10.7157 19.3421 11.2428 20.9166 12.8236C21.8593 13.7712 22.4391 15.0197 22.5549 16.3513H21.0119C20.1471 16.3513 19.4461 17.0523 19.4461 17.9171V20.5268C19.4461 21.3916 20.1471 22.0926 21.0119 22.0926H22.5777C22.5777 22.9574 21.8767 23.6584 21.0119 23.6584H17.3583C17.07 23.6584 16.8364 23.8921 16.8364 24.1804C16.8364 24.4686 17.07 24.7023 17.3583 24.7023H21.0119C22.4532 24.7023 23.6216 23.5339 23.6216 22.0926V16.8732C23.6284 15.0806 22.9216 13.359 21.6571 12.0884ZM12.6609 17.3952C12.9491 17.3952 13.1828 17.6289 13.1828 17.9171V20.5268C13.1828 20.8151 12.9491 21.0487 12.6609 21.0487H11.617C11.3287 21.0487 11.095 20.8151 11.095 20.5268V17.3952H12.6609ZM21.0119 21.0487C20.7236 21.0487 20.4899 20.8151 20.4899 20.5268V17.9171C20.4899 17.6289 20.7236 17.3952 21.0119 17.3952H22.5777V21.0487H21.0119Z" fill="black"/>
</g>
<defs>
<clipPath id="clip0_19_707">
<rect width="16.702" height="16.702" fill="white" transform="translate(8.48535 8.52222)"/>
</clipPath>
</defs>
</svg>
