<svg width="19" height="13" viewBox="0 0 19 13" fill="none" xmlns="http://www.w3.org/2000/svg">
<path fill-rule="evenodd" clip-rule="evenodd" d="M8.7594 8.67274C10.4041 7.57782 11.1378 5.53518 10.5659 3.64398C9.99395 1.75279 8.25118 0.459119 6.27539 0.459119C4.2996 0.459119 2.55683 1.75279 1.98488 3.64398C1.41294 5.53518 2.14672 7.57782 3.79138 8.67274C2.34243 9.20677 1.105 10.195 0.263716 11.4899C0.143383 11.6688 0.128683 11.8986 0.225245 12.0913C0.321807 12.284 0.514667 12.4098 0.729962 12.4205C0.945257 12.4312 1.14962 12.3251 1.26479 12.1429C2.36733 10.4471 4.25274 9.4241 6.27539 9.4241C8.29805 9.4241 10.1835 10.4471 11.286 12.1429C11.4684 12.414 11.8347 12.4883 12.1084 12.3098C12.382 12.1313 12.4616 11.7661 12.2871 11.4899C11.4458 10.195 10.2083 9.20677 8.7594 8.67274ZM2.98828 4.94336C2.98828 3.12794 4.45997 1.65625 6.27539 1.65625C8.09081 1.65625 9.5625 3.12794 9.5625 4.94336C9.5625 6.75878 8.09081 8.23047 6.27539 8.23047C4.46082 8.22841 2.99034 6.75793 2.98828 4.94336ZM18.6872 12.3169C18.4108 12.4972 18.0405 12.4193 17.8602 12.1429C16.7589 10.446 14.8725 9.42307 12.8496 9.42578C12.5195 9.42578 12.252 9.1582 12.252 8.82813C12.252 8.49805 12.5195 8.23047 12.8496 8.23047C14.1735 8.22922 15.3674 7.43393 15.8786 6.21277C16.3899 4.99161 16.1187 3.58293 15.1905 2.63889C14.2624 1.69485 12.8586 1.3997 11.6289 1.89008C11.4293 1.97637 11.1986 1.94744 11.0265 1.81455C10.8544 1.68165 10.768 1.46577 10.801 1.25084C10.834 1.03591 10.9811 0.855854 11.1851 0.780684C13.3165 -0.0693293 15.7456 0.827505 16.8133 2.8586C17.8809 4.88969 17.2423 7.39909 15.3336 8.67274C16.7826 9.20677 18.02 10.195 18.8613 11.4899C19.0416 11.7664 18.9636 12.1366 18.6872 12.3169Z" fill="black"/>
</svg>
