<svg width="15" height="15" viewBox="0 0 15 15" fill="none" xmlns="http://www.w3.org/2000/svg">
<path fill-rule="evenodd" clip-rule="evenodd" d="M10.7342 5.74882C10.8351 5.84964 10.8918 5.98644 10.8918 6.1291C10.8918 6.27176 10.8351 6.40857 10.7342 6.50938L6.97169 10.2719C6.87087 10.3728 6.73406 10.4295 6.59141 10.4295C6.44875 10.4295 6.31194 10.3728 6.21112 10.2719L4.59863 8.65938C4.3886 8.44936 4.3886 8.10884 4.59863 7.89882C4.80865 7.6888 5.14916 7.6888 5.35919 7.89882L6.59141 9.13171L9.97363 5.74882C10.0744 5.64789 10.2112 5.59118 10.3539 5.59118C10.4966 5.59118 10.6334 5.64789 10.7342 5.74882ZM14.6539 7.7416C14.6539 11.6007 11.5255 14.7291 7.66641 14.7291C3.80732 14.7291 0.678906 11.6007 0.678906 7.7416C0.678906 3.88251 3.80732 0.754102 7.66641 0.754102C11.5238 0.758175 14.6498 3.8842 14.6539 7.7416ZM13.5789 7.7416C13.5789 4.47622 10.9318 1.8291 7.66641 1.8291C4.40102 1.8291 1.75391 4.47622 1.75391 7.7416C1.75391 11.007 4.40102 13.6541 7.66641 13.6541C10.9303 13.6504 13.5752 11.0055 13.5789 7.7416Z" fill="black"/>
</svg>
