<svg width="34" height="34" viewBox="0 0 34 34" fill="none" xmlns="http://www.w3.org/2000/svg">
<rect x="0.134766" y="0.256989" width="33.4041" height="33.4041" rx="5.56734" fill="white"/>
<g clip-path="url(#clip0_19_685)">
<path fill-rule="evenodd" clip-rule="evenodd" d="M22.0558 11.2177H11.617C11.0405 11.2177 10.5731 11.6851 10.5731 12.2616V16.0959C10.5731 21.9422 15.5198 23.8819 16.5102 24.2114C16.7217 24.2833 16.9511 24.2833 17.1626 24.2114C18.1543 23.8819 23.0996 21.9422 23.0996 16.0959V12.2616C23.0996 11.6851 22.6323 11.2177 22.0558 11.2177ZM22.0558 16.0972C22.0558 21.2135 17.7269 22.9228 16.8364 23.2203C15.9536 22.9261 11.617 21.218 11.617 16.0972V12.2616H22.0558V16.0972Z" fill="black"/>
</g>
<defs>
<clipPath id="clip0_19_685">
<rect width="16.702" height="16.702" fill="white" transform="translate(8.48535 8.608)"/>
</clipPath>
</defs>
</svg>
