<svg width="34" height="34" viewBox="0 0 34 34" fill="none" xmlns="http://www.w3.org/2000/svg">
<rect x="0.134766" y="0.428528" width="33.4041" height="33.4041" rx="5.56734" fill="white"/>
<g clip-path="url(#clip0_19_641)">
<path fill-rule="evenodd" clip-rule="evenodd" d="M22.5777 12.4331H19.968V11.9112C19.968 11.0464 19.267 10.3454 18.4022 10.3454H15.2706C14.4058 10.3454 13.7047 11.0464 13.7047 11.9112V12.4331H11.095C10.5185 12.4331 10.0512 12.9005 10.0512 13.477V21.828C10.0512 22.4045 10.5185 22.8719 11.095 22.8719H22.5777C23.1542 22.8719 23.6216 22.4045 23.6216 21.828V13.477C23.6216 12.9005 23.1542 12.4331 22.5777 12.4331ZM14.7486 11.9112C14.7486 11.6229 14.9823 11.3892 15.2706 11.3892H18.4022C18.6904 11.3892 18.9241 11.6229 18.9241 11.9112V12.4331H14.7486V11.9112ZM22.5777 13.477V16.1917C20.816 17.1506 18.8421 17.6529 16.8364 17.6525C14.8307 17.6529 12.8569 17.1509 11.095 16.1924V13.477H22.5777ZM22.5777 21.828H11.095V17.368C12.8826 18.2424 14.8464 18.6968 16.8364 18.6964C18.8264 18.6964 20.7901 18.2419 22.5777 17.3674V21.828ZM15.2706 16.0867C15.2706 15.7984 15.5042 15.5647 15.7925 15.5647H17.8802C18.1685 15.5647 18.4022 15.7984 18.4022 16.0867C18.4022 16.3749 18.1685 16.6086 17.8802 16.6086H15.7925C15.5042 16.6086 15.2706 16.3749 15.2706 16.0867Z" fill="black"/>
</g>
<defs>
<clipPath id="clip0_19_641">
<rect width="16.702" height="16.702" fill="white" transform="translate(8.48535 8.77954)"/>
</clipPath>
</defs>
</svg>
