<svg width="17" height="12" viewBox="0 0 17 12" fill="none" xmlns="http://www.w3.org/2000/svg">
<path fill-rule="evenodd" clip-rule="evenodd" d="M16.6899 4.16062L15.7493 1.80906C15.586 1.40195 15.1909 1.13567 14.7523 1.13718H12.4289V0.599683C12.4289 0.30283 12.1883 0.0621829 11.8914 0.0621829H1.67891C1.0852 0.0621829 0.603906 0.543477 0.603906 1.13718V8.66218C0.603906 9.25589 1.0852 9.73718 1.67891 9.73718H2.82109C3.06467 10.6885 3.92189 11.3539 4.90391 11.3539C5.88592 11.3539 6.74314 10.6885 6.98672 9.73718H10.3461C10.5897 10.6885 11.4469 11.3539 12.4289 11.3539C13.4109 11.3539 14.2681 10.6885 14.5117 9.73718H15.6539C16.2476 9.73718 16.7289 9.25589 16.7289 8.66218V4.36218C16.7291 4.29311 16.7159 4.22465 16.6899 4.16062ZM12.4289 2.21218H14.7523L15.3973 3.82468H12.4289V2.21218ZM1.67891 1.13718H11.3539V5.43718H1.67891V1.13718ZM4.90391 10.2747C4.3102 10.2747 3.82891 9.79339 3.82891 9.19968C3.82891 8.60598 4.3102 8.12468 4.90391 8.12468C5.49761 8.12468 5.97891 8.60598 5.97891 9.19968C5.97891 9.79339 5.49761 10.2747 4.90391 10.2747ZM10.3461 8.66218H6.98672C6.74314 7.71085 5.88592 7.04547 4.90391 7.04547C3.92189 7.04547 3.06467 7.71085 2.82109 8.66218H1.67891V6.51218H11.3539V7.33926C10.8547 7.62783 10.4917 8.10424 10.3461 8.66218ZM12.4289 10.2747C11.8352 10.2747 11.3539 9.79339 11.3539 9.19968C11.3539 8.60598 11.8352 8.12468 12.4289 8.12468C13.0226 8.12468 13.5039 8.60598 13.5039 9.19968C13.5039 9.79339 13.0226 10.2747 12.4289 10.2747ZM15.6539 8.66218H14.5117C14.2653 7.71335 13.4092 7.05061 12.4289 7.04968V4.89968H15.6539V8.66218Z" fill="black"/>
</svg>
