<svg width="34" height="34" viewBox="0 0 34 34" fill="none" xmlns="http://www.w3.org/2000/svg">
<rect x="0.134766" y="0.150879" width="33.4041" height="33.4041" rx="5.56734" fill="white"/>
<g clip-path="url(#clip0_19_675)">
<path fill-rule="evenodd" clip-rule="evenodd" d="M22.0558 13.7213H19.968V12.1555C19.968 10.4259 18.5659 9.02383 16.8364 9.02383C15.1068 9.02383 13.7047 10.4259 13.7047 12.1555V13.7213H11.617C11.0405 13.7213 10.5731 14.1886 10.5731 14.7652V22.0723C10.5731 22.6488 11.0405 23.1162 11.617 23.1162H22.0558C22.6323 23.1162 23.0996 22.6488 23.0996 22.0723V14.7652C23.0996 14.1886 22.6323 13.7213 22.0558 13.7213ZM14.7486 12.1555C14.7486 11.0024 15.6833 10.0677 16.8364 10.0677C17.9894 10.0677 18.9241 11.0024 18.9241 12.1555V13.7213H14.7486V12.1555ZM22.0558 22.0723H11.617V14.7652H22.0558V22.0723ZM17.6193 18.4187C17.6193 18.8511 17.2688 19.2016 16.8364 19.2016C16.404 19.2016 16.0535 18.8511 16.0535 18.4187C16.0535 17.9863 16.404 17.6358 16.8364 17.6358C17.2688 17.6358 17.6193 17.9863 17.6193 18.4187Z" fill="black"/>
</g>
<defs>
<clipPath id="clip0_19_675">
<rect width="16.702" height="16.702" fill="white" transform="translate(8.48535 8.50189)"/>
</clipPath>
</defs>
</svg>
