<svg width="28" height="29" viewBox="0 0 28 29" fill="none" xmlns="http://www.w3.org/2000/svg">
<rect x="0.134766" y="0.195618" width="27.8367" height="27.8367" rx="5.56734" fill="white"/>
<g clip-path="url(#clip0_19_719)">
<path fill-rule="evenodd" clip-rule="evenodd" d="M20.3164 14.114C20.3164 14.4022 20.0827 14.6359 19.7945 14.6359H9.57167L13.3786 18.4421C13.5825 18.6461 13.5825 18.9767 13.3786 19.1807C13.1746 19.3846 12.844 19.3846 12.64 19.1807L7.94257 14.4832C7.84456 14.3853 7.78949 14.2525 7.78949 14.114C7.78949 13.9754 7.84456 13.8426 7.94257 13.7447L12.64 9.04724C12.844 8.84329 13.1746 8.84329 13.3786 9.04724C13.5825 9.25118 13.5825 9.58184 13.3786 9.78578L9.57167 13.592H19.7945C20.0827 13.592 20.3164 13.8257 20.3164 14.114Z" fill="black"/>
</g>
<defs>
<clipPath id="clip0_19_719">
<rect width="16.702" height="16.702" fill="white" transform="translate(5.70215 5.76294)"/>
</clipPath>
</defs>
</svg>
