<svg width="17" height="16" viewBox="0 0 17 16" fill="none" xmlns="http://www.w3.org/2000/svg">
<path fill-rule="evenodd" clip-rule="evenodd" d="M15.7105 3.94187L9.13625 0.344727C8.77919 0.147436 8.34581 0.147436 7.98875 0.344727L1.41453 3.94336C1.03214 4.15259 0.793958 4.55338 0.792969 4.98926V12.1342C0.793958 12.5701 1.03214 12.9709 1.41453 13.1801L7.98875 16.7788C8.34581 16.9761 8.77919 16.9761 9.13625 16.7788L15.7105 13.1801C16.0929 12.9709 16.331 12.5701 16.332 12.1342V4.99001C16.3319 4.55332 16.0936 4.15148 15.7105 3.94187ZM8.5625 1.39063L14.5645 4.67773L12.3404 5.89546L6.33773 2.60835L8.5625 1.39063ZM8.5625 7.96484L2.56054 4.67773L5.09311 3.29117L11.0951 6.57828L8.5625 7.96484ZM1.98828 5.72363L7.96484 8.99431V15.4034L1.98828 12.135V5.72363ZM15.1367 12.132L9.16016 15.4034V8.9973L11.5508 7.68918V10.3555C11.5508 10.6855 11.8184 10.9531 12.1484 10.9531C12.4785 10.9531 12.7461 10.6855 12.7461 10.3555V7.03474L15.1367 5.72363V12.1313V12.132Z" fill="black"/>
</svg>
