<svg width="15" height="15" viewBox="0 0 15 15" fill="none" xmlns="http://www.w3.org/2000/svg">
<path fill-rule="evenodd" clip-rule="evenodd" d="M5.76953 0.863281H2.18359C1.52344 0.863281 0.988281 1.39844 0.988281 2.05859V5.64453C0.988281 6.30468 1.52344 6.83984 2.18359 6.83984H5.76953C6.42968 6.83984 6.96484 6.30468 6.96484 5.64453V2.05859C6.96484 1.39844 6.42968 0.863281 5.76953 0.863281ZM5.76953 5.64453H2.18359V2.05859H5.76953V5.64453ZM12.9414 0.863281H9.35547C8.69532 0.863281 8.16016 1.39844 8.16016 2.05859V5.64453C8.16016 6.30468 8.69532 6.83984 9.35547 6.83984H12.9414C13.6016 6.83984 14.1367 6.30468 14.1367 5.64453V2.05859C14.1367 1.39844 13.6016 0.863281 12.9414 0.863281ZM12.9414 5.64453H9.35547V2.05859H12.9414V5.64453ZM5.76953 8.03516H2.18359C1.52344 8.03516 0.988281 8.57032 0.988281 9.23047V12.8164C0.988281 13.4766 1.52344 14.0117 2.18359 14.0117H5.76953C6.42968 14.0117 6.96484 13.4766 6.96484 12.8164V9.23047C6.96484 8.57032 6.42968 8.03516 5.76953 8.03516ZM5.76953 12.8164H2.18359V9.23047H5.76953V12.8164ZM12.9414 8.03516H9.35547C8.69532 8.03516 8.16016 8.57032 8.16016 9.23047V12.8164C8.16016 13.4766 8.69532 14.0117 9.35547 14.0117H12.9414C13.6016 14.0117 14.1367 13.4766 14.1367 12.8164V9.23047C14.1367 8.57032 13.6016 8.03516 12.9414 8.03516ZM12.9414 12.8164H9.35547V9.23047H12.9414V12.8164Z" fill="black"/>
</svg>
