<svg width="17" height="17" viewBox="0 0 17 17" fill="none" xmlns="http://www.w3.org/2000/svg">
<path fill-rule="evenodd" clip-rule="evenodd" d="M8.5625 4.85156C6.58204 4.85156 4.97656 6.45704 4.97656 8.4375C4.97656 10.418 6.58204 12.0234 8.5625 12.0234C10.543 12.0234 12.1484 10.418 12.1484 8.4375C12.1464 6.4579 10.5421 4.85362 8.5625 4.85156ZM8.5625 10.8281C7.2422 10.8281 6.17188 9.75781 6.17188 8.4375C6.17188 7.1172 7.2422 6.04688 8.5625 6.04688C9.88281 6.04688 10.9531 7.1172 10.9531 8.4375C10.9531 9.75781 9.88281 10.8281 8.5625 10.8281ZM15.1367 8.59887C15.1397 8.49129 15.1397 8.38371 15.1367 8.27613L16.2513 6.88359C16.3699 6.73532 16.4109 6.53956 16.3619 6.35616C16.1792 5.66931 15.9059 5.00983 15.5491 4.3951C15.4544 4.23199 15.2882 4.12316 15.1009 4.1015L13.3288 3.90428C13.2551 3.82658 13.1804 3.75188 13.1047 3.68016L12.8955 1.90362C12.8737 1.71611 12.7646 1.54992 12.6012 1.45538C11.9862 1.09929 11.3268 0.826224 10.6401 0.643316C10.4566 0.594526 10.2608 0.635844 10.1127 0.754629L8.72387 1.86328C8.61629 1.86328 8.50871 1.86328 8.40113 1.86328L7.00859 0.750894C6.86032 0.632369 6.66456 0.591331 6.48116 0.640327C5.79442 0.82338 5.13498 1.0967 4.5201 1.45314C4.35699 1.54785 4.24816 1.71401 4.2265 1.90138L4.02928 3.67642C3.95158 3.75063 3.87688 3.82534 3.80516 3.90054L2.02862 4.10449C1.84111 4.12631 1.67492 4.23544 1.58038 4.39884C1.22429 5.0138 0.951224 5.67322 0.768316 6.3599C0.719526 6.54341 0.760844 6.73918 0.879629 6.88733L1.98828 8.27613C1.98828 8.38371 1.98828 8.49129 1.98828 8.59887L0.875894 9.99141C0.757369 10.1397 0.716331 10.3354 0.765327 10.5188C0.948053 11.2057 1.22139 11.8652 1.57814 12.4799C1.67285 12.643 1.83901 12.7518 2.02638 12.7735L3.79843 12.9707C3.87264 13.0484 3.94735 13.1231 4.02255 13.1948L4.22949 14.9714C4.25131 15.1589 4.36044 15.3251 4.52384 15.4196C5.1388 15.7757 5.79822 16.0488 6.4849 16.2317C6.66841 16.2805 6.86418 16.2392 7.01233 16.1204L8.40113 15.0117C8.50871 15.0147 8.61629 15.0147 8.72387 15.0117L10.1164 16.1263C10.2647 16.2449 10.4604 16.2859 10.6438 16.2369C11.3307 16.0542 11.9902 15.7809 12.6049 15.4241C12.768 15.3294 12.8768 15.1632 12.8985 14.9759L13.0957 13.2038C13.1734 13.1301 13.2481 13.0554 13.3198 12.9797L15.0964 12.7705C15.2839 12.7487 15.4501 12.6396 15.5446 12.4762C15.9007 11.8612 16.1738 11.2018 16.3567 10.5151C16.4055 10.3316 16.3642 10.1358 16.2454 9.98767L15.1367 8.59887ZM13.9339 8.11327C13.9466 8.32924 13.9466 8.54576 13.9339 8.76173C13.925 8.90959 13.9714 9.05548 14.0639 9.17112L15.124 10.4957C15.0024 10.8823 14.8466 11.2573 14.6586 11.6163L12.9702 11.8075C12.8232 11.8239 12.6874 11.8941 12.5892 12.0048C12.4454 12.1665 12.2922 12.3197 12.1305 12.4635C12.0199 12.5617 11.9496 12.6974 11.9333 12.8445L11.7458 14.5314C11.3868 14.7195 11.0118 14.8752 10.6252 14.9968L9.29986 13.9367C9.19381 13.852 9.06207 13.8058 8.92632 13.8059H8.89046C8.6745 13.8186 8.45797 13.8186 8.24201 13.8059C8.09415 13.797 7.94825 13.8434 7.83261 13.9359L6.50432 14.9968C6.11774 14.8751 5.74273 14.7194 5.38372 14.5314L5.19247 12.8452C5.17615 12.6982 5.10587 12.5624 4.99524 12.4642C4.83351 12.3204 4.68034 12.1672 4.53654 12.0055C4.43832 11.8949 4.30257 11.8246 4.15553 11.8083L2.46865 11.62C2.28053 11.2611 2.12477 10.886 2.00322 10.4994L3.06332 9.17411C3.15588 9.05847 3.20221 8.91258 3.19331 8.76472C3.18061 8.54875 3.18061 8.33223 3.19331 8.11626C3.20221 7.9684 3.15588 7.82251 3.06332 7.70687L2.00322 6.37932C2.12486 5.99274 2.28062 5.61773 2.46865 5.25872L4.15479 5.06747C4.30182 5.05115 4.43758 4.98087 4.53579 4.87024C4.6796 4.70851 4.83276 4.55534 4.99449 4.41154C5.10556 4.31326 5.17613 4.17719 5.19247 4.02979L5.37998 2.34365C5.73895 2.15553 6.11397 1.99977 6.50059 1.87822L7.82589 2.93832C7.94153 3.03088 8.08743 3.07721 8.23528 3.06831C8.45125 3.05561 8.66778 3.05561 8.88374 3.06831C9.0316 3.07721 9.17749 3.03088 9.29314 2.93832L10.6207 1.87822C11.0073 1.99986 11.3823 2.15562 11.7413 2.34365L11.9325 4.02979C11.9489 4.17682 12.0191 4.31258 12.1298 4.41079C12.2915 4.5546 12.4447 4.70776 12.5885 4.86949C12.6867 4.98012 12.8224 5.0504 12.9695 5.06672L14.6564 5.25423C14.8445 5.6132 15.0002 5.98822 15.1218 6.37484L14.0617 7.70014C13.9682 7.81676 13.9219 7.96415 13.9317 8.11327H13.9339Z" fill="black"/>
</svg>
