<svg width="34" height="34" viewBox="0 0 34 34" fill="none" xmlns="http://www.w3.org/2000/svg">
<rect x="0.134766" y="0.342743" width="33.4041" height="33.4041" rx="5.56734" fill="white"/>
<g clip-path="url(#clip0_19_663)">
<path fill-rule="evenodd" clip-rule="evenodd" d="M22.9561 20.1725C22.594 19.5488 22.0558 17.784 22.0558 15.479C22.0558 12.5964 19.719 10.2596 16.8364 10.2596C13.9538 10.2596 11.617 12.5964 11.617 15.479C11.617 17.7846 11.0781 19.5488 10.716 20.1725C10.5278 20.4952 10.5264 20.894 10.7124 21.218C10.8984 21.542 11.2434 21.7419 11.617 21.7422H14.2795C14.5278 22.957 15.5965 23.8294 16.8364 23.8294C18.0762 23.8294 19.145 22.957 19.3932 21.7422H22.0558C22.4293 21.7417 22.774 21.5417 22.9598 21.2177C23.1457 20.8937 23.1442 20.4951 22.9561 20.1725ZM16.8364 22.7861C16.173 22.7859 15.5817 22.3677 15.3606 21.7422H18.3121C18.091 22.3677 17.4998 22.7859 16.8364 22.7861ZM11.617 20.6983C12.1193 19.8345 12.6609 17.8329 12.6609 15.479C12.6609 13.1729 14.5303 11.3034 16.8364 11.3034C19.1424 11.3034 21.0119 13.1729 21.0119 15.479C21.0119 17.8309 21.5521 19.8326 22.0558 20.6983H11.617Z" fill="black"/>
</g>
<defs>
<clipPath id="clip0_19_663">
<rect width="16.702" height="16.702" fill="white" transform="translate(8.48535 8.69376)"/>
</clipPath>
</defs>
</svg>
