<svg width="34" height="34" viewBox="0 0 34 34" fill="none" xmlns="http://www.w3.org/2000/svg">
<rect x="0.134766" y="0.534622" width="33.4041" height="33.4041" rx="5.56734" fill="white"/>
<g clip-path="url(#clip0_19_651)">
<path fill-rule="evenodd" clip-rule="evenodd" d="M23.0996 12.0173H10.5731C9.99659 12.0173 9.52923 12.4846 9.52923 13.0611V21.4122C9.52923 21.9887 9.99659 22.456 10.5731 22.456H23.0996C23.6761 22.456 24.1435 21.9887 24.1435 21.4122V13.0611C24.1435 12.4846 23.6761 12.0173 23.0996 12.0173ZM23.0996 13.0611V14.627H10.5731V13.0611H23.0996ZM23.0996 21.4122H10.5731V15.6708H23.0996V21.4122ZM22.0558 19.8463C22.0558 20.1346 21.8221 20.3683 21.5338 20.3683H19.4461C19.1578 20.3683 18.9241 20.1346 18.9241 19.8463C18.9241 19.5581 19.1578 19.3244 19.4461 19.3244H21.5338C21.8221 19.3244 22.0558 19.5581 22.0558 19.8463ZM17.8802 19.8463C17.8802 20.1346 17.6466 20.3683 17.3583 20.3683H16.3144C16.0262 20.3683 15.7925 20.1346 15.7925 19.8463C15.7925 19.5581 16.0262 19.3244 16.3144 19.3244H17.3583C17.6466 19.3244 17.8802 19.5581 17.8802 19.8463Z" fill="black"/>
</g>
<defs>
<clipPath id="clip0_19_651">
<rect width="16.702" height="16.702" fill="white" transform="translate(8.48535 8.88564)"/>
</clipPath>
</defs>
</svg>
