<svg width="34" height="34" viewBox="0 0 34 34" fill="none" xmlns="http://www.w3.org/2000/svg">
<rect x="0.134766" y="0.0651245" width="33.4041" height="33.4041" rx="5.56734" fill="white"/>
<g clip-path="url(#clip0_19_697)">
<path fill-rule="evenodd" clip-rule="evenodd" d="M17.6193 20.1598C17.6193 20.5921 17.2688 20.9427 16.8364 20.9427C16.404 20.9427 16.0535 20.5921 16.0535 20.1598C16.0535 19.7274 16.404 19.3768 16.8364 19.3768C17.2688 19.3768 17.6193 19.7274 17.6193 20.1598ZM16.8364 13.1136C15.3971 13.1136 14.2267 14.1672 14.2267 15.4623V15.7233C14.2267 16.0115 14.4604 16.2452 14.7486 16.2452C15.0369 16.2452 15.2706 16.0115 15.2706 15.7233V15.4623C15.2706 14.7446 15.9732 14.1575 16.8364 14.1575C17.6995 14.1575 18.4022 14.7446 18.4022 15.4623C18.4022 16.18 17.6995 16.7672 16.8364 16.7672C16.5481 16.7672 16.3144 17.0008 16.3144 17.2891V17.811C16.3144 18.0993 16.5481 18.333 16.8364 18.333C17.1246 18.333 17.3583 18.0993 17.3583 17.811V17.7641C18.5483 17.5455 19.4461 16.5962 19.4461 15.4623C19.4461 14.1672 18.2756 13.1136 16.8364 13.1136ZM23.6216 16.7672C23.6216 20.5145 20.5837 23.5524 16.8364 23.5524C13.089 23.5524 10.0512 20.5145 10.0512 16.7672C10.0512 13.0198 13.089 9.98195 16.8364 9.98195C20.5821 9.98591 23.6176 13.0214 23.6216 16.7672ZM22.5777 16.7672C22.5777 13.5963 20.0072 11.0258 16.8364 11.0258C13.6655 11.0258 11.095 13.5963 11.095 16.7672C11.095 19.938 13.6655 22.5085 16.8364 22.5085C20.0057 22.5049 22.5741 19.9365 22.5777 16.7672Z" fill="black"/>
</g>
<defs>
<clipPath id="clip0_19_697">
<rect width="16.702" height="16.702" fill="white" transform="translate(8.48535 8.41614)"/>
</clipPath>
</defs>
</svg>
