<svg width="15" height="15" viewBox="0 0 15 15" fill="none" xmlns="http://www.w3.org/2000/svg">
<path fill-rule="evenodd" clip-rule="evenodd" d="M15 6.86556V13.7999C15 14.4627 14.4403 15 13.75 15H10.625C9.93463 15 9.37499 14.4627 9.37499 13.7999V10.7996C9.37499 10.4682 9.09517 10.1996 8.74999 10.1996H6.24999C5.90481 10.1996 5.62499 10.4682 5.62499 10.7996V13.7999C5.62499 14.4627 5.06535 15 4.37499 15H1.25C0.559643 15 1.44677e-08 14.4627 1.44677e-08 13.7999V6.86556C-5.31542e-05 6.52975 0.146441 6.20928 0.403906 5.98198L6.6539 0.320502L6.66249 0.312251C7.13932 -0.104084 7.86769 -0.104084 8.34452 0.312251C8.34719 0.315186 8.35006 0.317943 8.35312 0.320502L14.6031 5.98198C14.858 6.21047 15.0018 6.53078 15 6.86556Z" fill="black"/>
</svg>
